<svg xmlns="http://www.w3.org/2000/svg" viewBox="0 0 274.02 40.4"><defs><style>.cls-1{fill:none;stroke:#f8ad3b;stroke-miterlimit:10;}.cls-2{fill:#e6e6e6;}.cls-3{fill:#f8ad3b;}</style></defs><g id="Layer_2" data-name="Layer 2"><g id="Layer_1-2" data-name="Layer 1"><g id="Layer_2-2" data-name="Layer 2"><g id="レイヤー_1" data-name="レイヤー 1"><line class="cls-1" x1="265" y1="34.4" x2="6" y2="34.4"/><line class="cls-1" x1="133.6" y1="34.4" x2="5.8" y2="34.4"/><circle class="cls-2" cx="6" cy="34.4" r="6"/><circle class="cls-3" cx="134" cy="34.4" r="6"/><circle class="cls-3" cx="265" cy="34.4" r="6"/><g id="c3YYts"><path class="cls-3" d="M259.9,12.1c.1.3.1.6.2.8l.1.1H271a.75.75,0,1,1,.1,1.5H259.9a1.06,1.06,0,0,1-1.2-1c-.8-3.6-1.5-7.2-2.3-10.9-.1-.3-.1-.6-.2-.9a.22.22,0,0,0-.2-.2h-2.2a.75.75,0,0,1-.7-.5.78.78,0,0,1,.2-.8.76.76,0,0,1,.5-.2h2.7a1.17,1.17,0,0,1,1.1.9c.1.4.2.9.3,1.4a.22.22,0,0,0,.2.2h15.2a.92.92,0,0,1,.7,1.1l-.9,4.2c-.2,1.1-.5,2.2-.7,3.2a1.19,1.19,0,0,1-1.2,1l-11.3.1ZM267.3,4h-4l.3,2.5h3.5Zm-8.6,2.5H262L261.7,4h-3.6Zm9.9,0h3.2l.5-2.5h-3.6ZM267,8.1h-3.3l.3,2.5h2.9Zm-4.5,2.5-.3-2.5H259l.5,2.5Zm5.9,0h2.5c.1,0,.1,0,.1-.1a10.46,10.46,0,0,1,.4-1.7c.1-.3.1-.5.2-.8h-3Z"/><path class="cls-3" d="M269.3,15.4a1.5,1.5,0,1,1-1.5,1.5h0A1.47,1.47,0,0,1,269.3,15.4Z"/><path class="cls-3" d="M259.8,16.9a1.5,1.5,0,1,1,1.5,1.5h0A1.47,1.47,0,0,1,259.8,16.9Z"/></g><circle class="cls-3" cx="6" cy="34.4" r="6"/></g></g></g></g></svg>