<svg xmlns="http://www.w3.org/2000/svg" viewBox="0 0 20.97 18.32"><defs><style>.cls-1{fill:#fff;}</style></defs><g id="Layer_2" data-name="Layer 2"><g id="レイヤー_1" data-name="レイヤー 1"><g id="c3YYts"><path class="cls-1" d="M6.89,12c.06.29.11.56.17.82a.2.2,0,0,0,.1.08H18a.75.75,0,0,1,.12,1.5H6.89a1.15,1.15,0,0,1-1.24-1Q4.51,8,3.35,2.53c-.06-.28-.12-.56-.17-.85,0-.14-.08-.19-.22-.18-.74,0-1.48,0-2.21,0A.74.74,0,0,1,.05,1,.73.73,0,0,1,.24.21.69.69,0,0,1,.74,0H3.46A1.14,1.14,0,0,1,4.54.89c.1.45.19.91.28,1.36,0,.13.07.16.2.16q7.41,0,14.82,0a1.5,1.5,0,0,1,.42,0A1,1,0,0,1,21,3.58l-.9,4.24c-.22,1.08-.45,2.16-.68,3.23a1.13,1.13,0,0,1-1.18,1H6.89Zm7.36-8.11H10.3l.25,2.54h3.54ZM5.71,6.45H9.05L8.79,3.92H5.18Zm9.88,0h3.22l.54-2.55H15.76ZM14,8H10.71L11,10.51h2.88ZM9.45,10.51,9.2,8H6l.54,2.54Zm5.89,0,.07,0h2.44c.09,0,.11,0,.13-.11.11-.56.23-1.11.35-1.66.05-.26.1-.52.16-.78h-3Z"/><path class="cls-1" d="M16.26,15.32a1.5,1.5,0,1,1-1.51,1.5A1.5,1.5,0,0,1,16.26,15.32Z"/><path class="cls-1" d="M6.78,16.82a1.5,1.5,0,1,1,1.5,1.5A1.5,1.5,0,0,1,6.78,16.82Z"/></g></g></g></svg>