<svg xmlns="http://www.w3.org/2000/svg" viewBox="0 0 17.4 13.96"><defs><style>.cls-1{fill:#fff;}.cls-2{fill:#333;}</style></defs><g id="Layer_2" data-name="Layer 2"><g id="レイヤー_1" data-name="レイヤー 1"><g id="uHInO3"><path class="cls-1" d="M4.24.48V2.34H17.4V.48ZM17.4,8V6.14H4.24V8Zm0,3.8H4.24v1.85H17.4ZM2.81,1.44A1.41,1.41,0,1,0,1.37,2.82,1.4,1.4,0,0,0,2.81,1.44Zm0,5.63A1.4,1.4,0,0,0,1.4,5.65,1.42,1.42,0,0,0,0,7.06a1.41,1.41,0,1,0,2.81,0ZM1.4,11.46a1.25,1.25,0,1,0,0,2.5A1.24,1.24,0,0,0,2.66,12.7,1.26,1.26,0,0,0,1.4,11.46Z"/><path d="M4.24.48H17.4V2.34H4.24Z"/><path d="M17.4,8H4.24V6.14H17.4Z"/><path d="M17.4,11.79v1.85H4.24V11.79Z"/><path d="M2.81,1.44A1.41,1.41,0,0,1,0,1.4a1.41,1.41,0,1,1,2.81,0Z"/><path d="M2.81,7.07A1.41,1.41,0,1,1,0,7.06,1.42,1.42,0,0,1,1.4,5.65,1.4,1.4,0,0,1,2.81,7.07Z"/><path d="M1.4,11.46A1.26,1.26,0,0,1,2.66,12.7,1.24,1.24,0,0,1,1.41,14a1.25,1.25,0,1,1,0-2.5Z"/><path class="cls-2" d="M4.24.48V2.34H17.4V.48ZM17.4,8V6.14H4.24V8Zm0,3.8H4.24v1.85H17.4ZM2.81,1.44A1.41,1.41,0,1,0,1.37,2.82,1.4,1.4,0,0,0,2.81,1.44Zm0,5.63A1.4,1.4,0,0,0,1.4,5.65,1.42,1.42,0,0,0,0,7.06a1.41,1.41,0,1,0,2.81,0ZM1.4,11.46a1.25,1.25,0,1,0,0,2.5A1.24,1.24,0,0,0,2.66,12.7,1.26,1.26,0,0,0,1.4,11.46Z"/><path class="cls-2" d="M4.24.48H17.4V2.34H4.24Z"/><path class="cls-2" d="M17.4,8H4.24V6.14H17.4Z"/><path class="cls-2" d="M17.4,11.79v1.85H4.24V11.79Z"/><path class="cls-2" d="M2.81,1.44A1.41,1.41,0,0,1,0,1.4a1.41,1.41,0,1,1,2.81,0Z"/><path class="cls-2" d="M2.81,7.07A1.41,1.41,0,1,1,0,7.06,1.42,1.42,0,0,1,1.4,5.65,1.4,1.4,0,0,1,2.81,7.07Z"/><path class="cls-2" d="M1.4,11.46A1.26,1.26,0,0,1,2.66,12.7,1.24,1.24,0,0,1,1.41,14a1.25,1.25,0,1,1,0-2.5Z"/></g></g></g></svg>