<svg xmlns="http://www.w3.org/2000/svg" viewBox="0 0 134.31 19.06"><defs><style>.cls-1{fill:#fff;}</style></defs><g id="Layer_2" data-name="Layer 2"><g id="レイヤー_1" data-name="レイヤー 1"><path class="cls-1" d="M3.14.46H6.51l4.21,12.66L15,.46h3.37l3,18.15H18l-2-11.47L12.23,18.61H9.18L5.36,7.14l-2,11.47H0Z"/><path class="cls-1" d="M30.92.46h3.51l7,18.15H37.82L36.4,14.87H29l-1.48,3.74H23.92ZM32.7,5.27,30.26,11.5h4.86Z"/><path class="cls-1"
                                                                                                                                                                                                                                                                                                                                                                                                                                     d="M45.34.46H48.8V15.31h5v3.3H45.34Z"/><path class="cls-1" d="M57.73.46h3.45V15.31h5v3.3H57.73Z"/><path class="cls-1" d="M70.12.46H80V3.84H73.55V7.12H80v3.32H73.55v4.77H80v3.4H70.12Z"/><path class="cls-1" d="M84.52.46h3.32L95.61,12.4V.46h3.45V18.61H95.74L88,6.7V18.61H84.52Z"/><path class="cls-1" d="M102.68.46h10v3.4h-3.3V18.61H105.9V3.86h-3.22Z"/><path class="cls-1" d="M124.92,0a9,9,0,0,1,6.62,2.79,9.26,9.26,0,0,1,2.77,6.8,9.16,9.16,0,0,1-2.73,6.72,9.49,9.49,0,0,1-13.43-.07,9.39,9.39,0,0,1-2.7-6.71,9.39,9.39,0,0,1,1.26-4.79,9.2,9.2,0,0,1,3.46-3.46A9.33,9.33,0,0,1,124.92,0Zm0,3.38a5.74,5.74,0,0,0-4.24,1.75,6.13,6.13,0,0,0-1.71,4.46,5.8,5.8,0,0,0,2.16,4.76,5.93,5.93,0,0,0,3.85,1.37,5.61,5.61,0,0,0,4.19-1.78,6,6,0,0,0,1.73-4.38,6.05,6.05,0,0,0-1.74-4.38A5.68,5.68,0,0,0,124.88,3.38Z"/></g></g></svg>