<svg xmlns="http://www.w3.org/2000/svg" viewBox="0 0 17.88 17.84"><defs><style>.cls-1{fill:#666;}</style></defs><g id="Layer_2" data-name="Layer 2"><g id="レイヤー_1" data-name="レイヤー 1"><path class="cls-1" d="M8.94,2.23A6.69,6.69,0,1,1,2.23,8.92,6.7,6.7,0,0,1,8.94,2.23M8.94,0a8.92,8.92,0,1,0,8.94,8.92A8.93,8.93,0,0,0,8.94,0Z"/><path class="cls-1" d="M9.23,6H7.33a.54.54,0,0,0-.55.54v5.6a.54.54,0,0,0,.55.55H7.6a.54.54,0,0,0,.55-.55V10.52H9.23a2.47,2.47,0,0,0,2.61-2.29A2.46,2.46,0,0,0,9.23,6Zm0,3.36H8.15V7.15H9.23a1.17,1.17,0,0,1,1.24,1.08A1.17,1.17,0,0,1,9.23,9.31Z"/></g></g></svg>