<svg xmlns="http://www.w3.org/2000/svg" viewBox="0 0 19.47 18.3"><defs><style>.cls-1{fill:#fff;}</style></defs><g id="Layer_2" data-name="Layer 2"><g id="レイヤー_1" data-name="レイヤー 1"><path class="cls-1" d="M9.73,0C4.36,0,0,4.1,0,9.15S4.36,18.3,9.73,18.3s9.74-4.09,9.74-9.15S15.11,0,9.73,0Zm0,16a7.1,7.1,0,0,1-7.3-6.86,7.1,7.1,0,0,1,7.3-6.86A7.1,7.1,0,0,1,17,9.15,7.09,7.09,0,0,1,9.73,16Z"/><path class="cls-1" d="M10.05,6.19H8a.58.58,0,0,0-.6.57v5.83a.59.59,0,0,0,.6.57h.3a.59.59,0,0,0,.6-.57V11h1.17A2.65,2.65,0,0,0,12.9,8.57,2.65,2.65,0,0,0,10.05,6.19Zm0,3.51H8.88V7.44h1.17A1.26,1.26,0,0,1,11.4,8.57,1.26,1.26,0,0,1,10.05,9.7Z"/></g></g></svg>