<svg xmlns="http://www.w3.org/2000/svg" viewBox="0 0 17.09 16.97"><defs><style>.cls-1{fill:#666;}</style></defs><g id="Layer_2" data-name="Layer 2"><g id="レイヤー_1" data-name="レイヤー 1"><g id="i7pXJF"><path class="cls-1" d="M5.6,2a7,7,0,0,1,3-.64,7.28,7.28,0,0,1,2.68.54,6.9,6.9,0,0,1,2.31,1.53,7.1,7.1,0,0,1,1.93,6.77,7,7,0,0,1-3.73,4.72,6.94,6.94,0,0,1-1.92.66.69.69,0,0,0-.59.53.66.66,0,0,0,.25.69.68.68,0,0,0,.57.13,8.56,8.56,0,0,0,6.5-5.52,8.69,8.69,0,0,0,.48-2.25,8.54,8.54,0,0,0-2.75-6.93A8.22,8.22,0,0,0,11.43.51,8.46,8.46,0,0,0,7.32.09,8.63,8.63,0,0,0,3.79,1.45l-.23-.33A4,4,0,0,0,3.26.7C3.2.63,3.09.54,3,.55s-.14.13-.17.22c-.15.48-.28,1-.41,1.46-.07.24-.14.49-.2.74a.38.38,0,0,0,.37.53l1.15.11,1.06.09H5c.2,0,.28-.14.17-.31l-.47-.69-.09-.14C4.92,2.38,5.25,2.18,5.6,2ZM9.52,3.6a.55.55,0,0,0-1.1-.1,1,1,0,0,0,0,.17c0,1.53,0,3.06,0,4.58a.24.24,0,0,1-.14.24L4,10.68a.62.62,0,0,0-.34.37.51.51,0,0,0,.15.57.53.53,0,0,0,.63.09l.91-.47,4-2.09A.18.18,0,0,0,9.53,9c0-.9,0-1.8,0-2.7S9.53,4.48,9.52,3.6ZM1.38,8.25A.69.69,0,0,0,0,8.21a5,5,0,0,0,0,.55.69.69,0,0,0,.68.65.68.68,0,0,0,.68-.66,2.43,2.43,0,0,0,0-.27h0Zm.29,4.68a.62.62,0,0,0,0,.68,3.9,3.9,0,0,0,.4.51.67.67,0,0,0,.9.07.67.67,0,0,0,.16-.9,3.48,3.48,0,0,0-.41-.52.67.67,0,0,0-1.06.16Zm4.79,3.9A5.41,5.41,0,0,0,7,17a.66.66,0,0,0,.75-.53.68.68,0,0,0-.47-.8,5,5,0,0,0-.53-.12.69.69,0,0,0-.82.67A.68.68,0,0,0,6.46,16.83ZM1.43,5a.66.66,0,0,0-.76.31A3.79,3.79,0,0,0,.41,6,.67.67,0,0,0,.8,6.7a.68.68,0,0,0,.81-.18,2.4,2.4,0,0,0,.33-.89A.68.68,0,0,0,1.43,5Zm-.75,6.8a.65.65,0,0,0,.83.18.66.66,0,0,0,.36-.78c-.06-.19-.12-.38-.2-.57a.68.68,0,0,0-.78-.38A.71.71,0,0,0,.37,11,2,2,0,0,0,.68,11.77Zm4.58,3.81A.66.66,0,0,0,5,14.81a3.71,3.71,0,0,0-.54-.33.66.66,0,0,0-.83.21.64.64,0,0,0,.06.87,4.93,4.93,0,0,0,.73.45.3.3,0,0,0,.12,0A.67.67,0,0,0,5.26,15.58Z"/><path class="cls-1" d="M4.57,2.57c.35-.19.68-.39,1-.55a7,7,0,0,1,3-.64,7.28,7.28,0,0,1,2.68.54,6.9,6.9,0,0,1,2.31,1.53,7.1,7.1,0,0,1,1.93,6.77,7,7,0,0,1-3.73,4.72,6.94,6.94,0,0,1-1.92.66.69.69,0,0,0-.59.53.66.66,0,0,0,.25.69.68.68,0,0,0,.57.13,8.56,8.56,0,0,0,6.5-5.52,8.69,8.69,0,0,0,.48-2.25,8.54,8.54,0,0,0-2.75-6.93A8.22,8.22,0,0,0,11.43.51,8.46,8.46,0,0,0,7.32.09,8.63,8.63,0,0,0,3.79,1.45l-.23-.33A4,4,0,0,0,3.26.7C3.2.63,3.09.54,3,.55s-.14.13-.17.22c-.15.48-.28,1-.41,1.46-.07.24-.14.49-.2.74a.38.38,0,0,0,.37.53l1.15.11,1.06.09H5c.2,0,.28-.14.17-.31l-.47-.69Z"/><path class="cls-1" d="M9.53,6.26c0-.89,0-1.78,0-2.66a.55.55,0,0,0-1.1-.1,1,1,0,0,0,0,.17c0,1.53,0,3.06,0,4.58a.24.24,0,0,1-.14.24L4,10.68a.62.62,0,0,0-.34.37.51.51,0,0,0,.15.57.53.53,0,0,0,.63.09l.91-.47,4-2.09A.18.18,0,0,0,9.53,9C9.52,8.06,9.53,7.16,9.53,6.26Z"/><path class="cls-1" d="M1.38,8.48V8.25A.69.69,0,0,0,0,8.21a5,5,0,0,0,0,.55.69.69,0,0,0,.68.65.68.68,0,0,0,.68-.66,2.43,2.43,0,0,0,0-.27Z"/><path class="cls-1" d="M2.23,12.58a.67.67,0,0,0-.56.35.62.62,0,0,0,0,.68,3.9,3.9,0,0,0,.4.51.67.67,0,0,0,.9.07.67.67,0,0,0,.16-.9,3.48,3.48,0,0,0-.41-.52A.67.67,0,0,0,2.23,12.58Z"/><path class="cls-1" d="M6,16.17a.68.68,0,0,0,.49.66A5.41,5.41,0,0,0,7,17a.66.66,0,0,0,.75-.53.68.68,0,0,0-.47-.8,5,5,0,0,0-.53-.12A.69.69,0,0,0,6,16.17Z"/><path class="cls-1" d="M1.94,5.63A.68.68,0,0,0,1.43,5a.66.66,0,0,0-.76.31A3.79,3.79,0,0,0,.41,6,.67.67,0,0,0,.8,6.7a.68.68,0,0,0,.81-.18A2.4,2.4,0,0,0,1.94,5.63Z"/><path class="cls-1" d="M.37,11a2,2,0,0,0,.31.82.65.65,0,0,0,.83.18.66.66,0,0,0,.36-.78c-.06-.19-.12-.38-.2-.57a.68.68,0,0,0-.78-.38A.71.71,0,0,0,.37,11Z"/><path class="cls-1" d="M4.57,16a.67.67,0,0,0,.69-.45A.66.66,0,0,0,5,14.81a3.71,3.71,0,0,0-.54-.33.66.66,0,0,0-.83.21.64.64,0,0,0,.06.87,4.93,4.93,0,0,0,.73.45A.3.3,0,0,0,4.57,16Z"/></g></g></g></svg>