<svg xmlns="http://www.w3.org/2000/svg" viewBox="0 0 19.67 15.21"><defs><style>.cls-1{fill:#666;}</style></defs><g id="Layer_2" data-name="Layer 2"><g id="レイヤー_1" data-name="レイヤー 1"><path class="cls-1" d="M18.17,2.14A1.49,1.49,0,0,0,17.1,4.67c-1,2.1-3,2.83-4.47,2.17-1.34-.59-1.83-2.29-2-3.6A1.72,1.72,0,1,0,8.11,1.72,1.73,1.73,0,0,0,9,3.24c-.16,1.31-.66,3-2,3.6-1.5.66-3.45-.07-4.46-2.17a1.5,1.5,0,1,0-1.27.44L3,11.41H16.64l1.72-6.3a1.49,1.49,0,0,0-.19-3Z"/><rect class="cls-1" x="2.19" y="12.89" width="15.29" height="2.32" rx="1.11"/></g></g></svg>