<svg xmlns="http://www.w3.org/2000/svg" viewBox="0 0 18.66 18.8"><defs><style>.cls-1{fill:#fff;}</style></defs><g id="Layer_2" data-name="Layer 2"><g id="レイヤー_1" data-name="レイヤー 1"><g id="_6oTDnh" data-name="6oTDnh"><path class="cls-1" d="M13.31,11.64l4.74,4.67c.25.25.62.57.61.85a2,2,0,0,1-.46,1.36,1.13,1.13,0,0,1-1.66-.21L12.21,14l-.69-.65a7.4,7.4,0,0,1-6.39,1,7.16,7.16,0,0,1-3.94-3,7.33,7.33,0,0,1,10.5-9.89C14,3.17,16,7,13.31,11.64Zm-6-10a5.6,5.6,0,0,0-5.7,5.66A5.66,5.66,0,1,0,13,7.3,5.59,5.59,0,0,0,7.35,1.66Z"/></g></g></g></svg>