<svg xmlns="http://www.w3.org/2000/svg" viewBox="0 0 15.95 16.06"><defs><style>.cls-1{fill:#acacac;}</style></defs><g id="Layer_2" data-name="Layer 2"><g id="レイヤー_1" data-name="レイヤー 1"><g id="_6oTDnh" data-name="6oTDnh"><path class="cls-1" d="M11.38,10l4,4c.21.22.53.49.52.72a1.73,1.73,0,0,1-.39,1.17,1,1,0,0,1-1.42-.18l-3.7-3.7-.59-.56a6.33,6.33,0,0,1-5.47.83A6.06,6.06,0,0,1,1,9.67a6.26,6.26,0,0,1,9-8.45C12,2.71,13.65,6,11.38,10ZM6.28,1.42A4.78,4.78,0,0,0,1.41,6.25a4.84,4.84,0,1,0,9.68,0A4.77,4.77,0,0,0,6.28,1.42Z"/></g></g></g></svg>