<svg xmlns="http://www.w3.org/2000/svg" viewBox="0 0 125.08 41.85"><defs><style>.cls-1{fill:#86b73f;}.cls-2{fill:#b4b4b6;}</style></defs><g id="Layer_2" data-name="Layer 2"><g id="レイヤー_1" data-name="レイヤー 1"><g id="USGXLV"><path class="cls-1" d="M0,22.9V18a1.52,1.52,0,0,1,1.48-1.6c.23,0,.28-.11.28-.31,0-1,0-2.1,0-3.15A13.12,13.12,0,0,1,7.55,2.22,12.7,12.7,0,0,1,13.4.08,13,13,0,0,1,25.13,5a12.94,12.94,0,0,1,2.56,5.47A12.13,12.13,0,0,1,28,13.08c0,1,0,2,0,3,0,.22.05.33.29.33A1.51,1.51,0,0,1,29.71,18c0,3.22,0,6.44,0,9.66a13.45,13.45,0,0,1-1.17,5.18,14.55,14.55,0,0,1-3.47,5,14.89,14.89,0,0,1-16,2.88,14.52,14.52,0,0,1-5.6-4.14A14.73,14.73,0,0,1,.15,29.18a13.4,13.4,0,0,1-.15-2C0,25.75,0,24.32,0,22.9Zm14.84-6.46h8.23c.38,0,.38,0,.38-.37V13a7.59,7.59,0,0,0-.22-1.84,8.45,8.45,0,0,0-3.42-5.11,8.33,8.33,0,0,0-5.87-1.53A8.34,8.34,0,0,0,8.15,7.72,8.39,8.39,0,0,0,6.25,13c0,1,0,2.05,0,3.07,0,.27.07.37.37.37C9.35,16.43,12.09,16.44,14.84,16.44ZM13.55,34.11a3.4,3.4,0,0,0,.31-.25l5-4.73,5.37-5c.2-.18.19-.3,0-.47-.83-.77-1.66-1.54-2.48-2.32-.18-.17-.29-.17-.46,0-.57.55-1.16,1.09-1.74,1.63q-2.91,2.73-5.81,5.47c-.18.17-.29.18-.48,0L9.71,25c-.13-.12-.21-.12-.35,0-.82.79-1.66,1.56-2.49,2.35-.29.26-.29.27,0,.53l4.24,4,2.17,2A.65.65,0,0,0,13.55,34.11Z"/><path d="M98.82,16.24V7.61c0-.51,0-.51.51-.58a26.62,26.62,0,0,1,4.08-.26,11.09,11.09,0,0,1,4.15.75,4.86,4.86,0,0,1,3.16,3.66,5.78,5.78,0,0,1-1.41,5.32,5.88,5.88,0,0,1-1.27,1c-.18.1-.2.2-.1.38,1.38,2.37,2.74,4.75,4.11,7.13l.11.19c.1.15,0,.22-.11.23a16.06,16.06,0,0,1-2.94.09c-.22,0-.45-.07-.67-.07a.58.58,0,0,1-.57-.37q-2.24-4-4.49-8c-.11-.2-.07-.28.12-.38a9.76,9.76,0,0,0,2.23-1.35,3.28,3.28,0,0,0,.62-4.26A2.7,2.7,0,0,0,104.63,10a5.7,5.7,0,0,0-1.7-.08c-.24,0-.33.11-.32.37,0,.66,0,1.33,0,2q0,6.36,0,12.7c0,.3-.06.43-.38.46a14,14,0,0,1-3,0c-.39,0-.39-.06-.39-.46V16.24Z"/><path d="M95.3,12.86c0,1.76,0,3.51,0,5.26A11.83,11.83,0,0,1,94.65,22a5.39,5.39,0,0,1-4.45,3.58,10.44,10.44,0,0,1-3.94-.07,5.44,5.44,0,0,1-4.36-4.3,14.74,14.74,0,0,1-.4-3.5V7.45c0-.29.07-.4.38-.43a15.46,15.46,0,0,1,3.19,0,.22.22,0,0,1,.22.26c0,.09,0,.19,0,.28,0,3.34,0,6.69,0,10a10.92,10.92,0,0,0,.33,2.84,2.48,2.48,0,0,0,2.59,2,3.17,3.17,0,0,0,1.84-.39,2.84,2.84,0,0,0,1.16-1.89A11,11,0,0,0,91.45,18c.11-3.52,0-7,0-10.56,0-.31.07-.42.39-.45a15.46,15.46,0,0,1,3.19,0c.24,0,.22.18.22.35v5.47Z"/><path d="M114.21,16.25V7.49c0-.39,0-.4.39-.4h9.66c.39,0,.39,0,.45.38a8.31,8.31,0,0,1,0,2.49c0,.3-.18.36-.44.36h-5.85c-.42,0-.42,0-.42.41,0,1,0,2.08,0,3.12,0,.26.09.34.34.34h4.58c.28,0,.39.08.42.35a9.84,9.84,0,0,1,0,2.6c0,.26-.15.35-.42.34-1.52,0-3,0-4.55,0-.29,0-.37.09-.37.37q0,2,0,4.05c0,.27.09.34.36.34h6.12c.27,0,.37.07.41.35a8.59,8.59,0,0,1,0,2.63c0,.2-.11.26-.31.26H114.51c-.3,0-.3-.16-.3-.37Z"/><path d="M52.38,16.27V7.48c0-.38,0-.38.39-.39h9.7c.29,0,.37.09.41.37a8.72,8.72,0,0,1,0,2.55c0,.28-.18.32-.41.32H56.59c-.41,0-.41,0-.41.42v3c0,.41,0,.41.42.41h4.5c.25,0,.36.07.4.33a9.8,9.8,0,0,1,0,2.65c0,.25-.16.31-.39.31H56.53c-.27,0-.36.07-.36.35,0,1.36,0,2.72,0,4.07,0,.26.07.34.34.34h6.12c.27,0,.39.06.43.36a8.72,8.72,0,0,1,0,2.6c0,.23-.14.28-.35.28H52.78c-.4,0-.4,0-.4-.41Z"/><path d="M42.47,25.73a12,12,0,0,1-4.66-.81c-.23-.09-.32-.18-.28-.46a17,17,0,0,1,.65-2.64c.06-.21.17-.24.35-.16a11.11,11.11,0,0,0,2.6.7,6.57,6.57,0,0,0,3-.2A2.19,2.19,0,0,0,44.39,18a27.08,27.08,0,0,0-2.57-1,8.72,8.72,0,0,1-2.17-1.11A4.06,4.06,0,0,1,38,12.76a6.12,6.12,0,0,1,.32-2.68,4.75,4.75,0,0,1,2.91-2.82,9.38,9.38,0,0,1,3.9-.46,16.18,16.18,0,0,1,3.67.76c.21.07.3.15.26.4a10.43,10.43,0,0,1-.67,2.4c-.09.23-.21.28-.42.18a8.51,8.51,0,0,0-3.59-.69,3.43,3.43,0,0,0-1.48.26,1.86,1.86,0,0,0-.32,3.11,7.79,7.79,0,0,0,1.85.86c.94.37,1.89.73,2.79,1.19A4.4,4.4,0,0,1,49.72,19a6.19,6.19,0,0,1-.44,3.35,5.33,5.33,0,0,1-3,2.81A9.09,9.09,0,0,1,42.47,25.73Z"/><path d="M74.39,25.73a9.06,9.06,0,0,1-4.84-1.11,7.83,7.83,0,0,1-3.61-4.69,12.3,12.3,0,0,1-.5-4.39,10.29,10.29,0,0,1,1.65-5.26,7.66,7.66,0,0,1,5.46-3.39,11.63,11.63,0,0,1,5.76.54c.27.1.35.21.31.51a11.09,11.09,0,0,1-.79,2.51c-.07.17-.19.11-.31.07a8,8,0,0,0-1.94-.44,5.7,5.7,0,0,0-3.91.75,4.58,4.58,0,0,0-1.8,2.67A10.27,10.27,0,0,0,70,19.39a4.22,4.22,0,0,0,3.8,3A8.61,8.61,0,0,0,77.72,22c.24-.08.34,0,.43.21a11.39,11.39,0,0,1,.71,2.42c0,.26,0,.37-.26.45A12,12,0,0,1,74.39,25.73Z"/><path class="cls-2" d="M66.34,33.52a.66.66,0,0,0,0,.35c0,1.49,0,3,0,4.47,0,.27-.09.39-.35.41a5.41,5.41,0,0,1-.9,0c-.21,0-.28-.12-.28-.33,0-.72,0-1.44,0-2.16,0-1.87,0-3.73,0-5.59,0-.28.09-.39.35-.41a3,3,0,0,1,1,0c.16,0,.23.16.3.28L69,35c.09.16.2.31.3.48.09-.12.05-.23.06-.32,0-1.49,0-3,0-4.47,0-.26.07-.37.34-.39a4.41,4.41,0,0,1,.89,0c.28,0,.36.16.35.42,0,1,0,1.91,0,2.87,0,1.6,0,3.2,0,4.8,0,.28-.09.4-.35.41l-.26,0a1.11,1.11,0,0,1-1.21-.66c-.86-1.5-1.79-3-2.7-4.44Z"/><path class="cls-2" d="M123.51,35.42c.08-.1,0-.21,0-.32,0-1.47,0-2.94,0-4.41,0-.4,0-.4.4-.45a3.15,3.15,0,0,1,.92,0,.23.23,0,0,1,.21.25v7.78c0,.4,0,.43-.42.46h0a1.2,1.2,0,0,1-1.35-.66c-.79-1.42-1.68-2.78-2.52-4.16-.09-.13-.18-.26-.26-.39-.11.06-.08.14-.08.21,0,1.56,0,3.13,0,4.69,0,.16,0,.24-.2.27a4.18,4.18,0,0,1-1.06,0c-.22,0-.28-.13-.28-.34,0-.94,0-1.89,0-2.84,0-1.63,0-3.27,0-4.91,0-.26.07-.39.34-.4l.36,0a1,1,0,0,1,1.08.59c.88,1.51,1.8,3,2.7,4.48C123.41,35.34,123.42,35.41,123.51,35.42Z"/><path class="cls-2" d="M110.23,34.7a6.22,6.22,0,0,1,.53-2.73,3.12,3.12,0,0,1,2.8-1.8,3.39,3.39,0,0,1,3.83,2.95,6.11,6.11,0,0,1-.34,3.82,3.14,3.14,0,0,1-3,1.88,3.79,3.79,0,0,1-2.21-.53,3.59,3.59,0,0,1-1.5-2.44A5.43,5.43,0,0,1,110.23,34.7Zm1.86-.06a4.54,4.54,0,0,0,.18,1.39,2.18,2.18,0,0,0,.38.78,1.61,1.61,0,0,0,2.74-.49,5.31,5.31,0,0,0,.26-1.42,5.24,5.24,0,0,0-.28-2.26,1.47,1.47,0,0,0-1.4-1,1.53,1.53,0,0,0-1.47.8A4.32,4.32,0,0,0,112.09,34.64Z"/><path class="cls-2" d="M79.78,34.46c0-1.27,0-2.55,0-3.82,0-.26.07-.36.34-.39a9.79,9.79,0,0,1,2.91,0,2.55,2.55,0,0,1,1.22,4.63c-.34.24-.34.24-.13.6l1.67,2.89c.15.27.13.28-.17.32a5.47,5.47,0,0,1-1.4,0,.37.37,0,0,1-.29-.19c-.65-1.16-1.3-2.32-2-3.47-.12-.21-.1-.33.13-.43a2.52,2.52,0,0,0,1.18-.93,1.34,1.34,0,0,0-1.07-2.06c-.81,0-.68-.06-.68.63q0,3,0,6.07c0,.27-.08.38-.36.4a5.68,5.68,0,0,1-1.09,0c-.25,0-.31-.13-.31-.35C79.78,37.06,79.78,35.76,79.78,34.46Z"/><path class="cls-2" d="M95.46,37.38c0,.35,0,.69,0,1,0,.18-.06.27-.25.3a4.66,4.66,0,0,1-1.18,0c-.19,0-.26-.09-.29-.29a5.9,5.9,0,0,1,0-.73V30.76c0-.53,0-.52.55-.55s1.29-.07,1.94-.05a4.32,4.32,0,0,1,1.61.35,2.35,2.35,0,0,1,1.34,1.62,3.91,3.91,0,0,1,0,1.7A2.55,2.55,0,0,1,97,35.94a6.08,6.08,0,0,1-1.28.08c-.2,0-.24.11-.24.27,0,.36,0,.73,0,1.09Zm0-4.3h0v1.2c0,.21.09.32.3.31a4.91,4.91,0,0,0,.67-.06,1.28,1.28,0,0,0,1.09-1.22,1.43,1.43,0,0,0-.86-1.6,3,3,0,0,0-1-.09c-.2,0-.26.09-.26.28C95.47,32.29,95.47,32.68,95.47,33.08Z"/><path class="cls-2" d="M58.58,34.49V30.64c0-.35,0-.37.37-.37h4c.35,0,.4,0,.42.38s0,.52,0,.78-.11.37-.38.36H60.7c-.36,0-.37,0-.38.36s0,.71,0,1.06.09.33.33.33h1.77c.22,0,.33.07.35.29a3.78,3.78,0,0,1,0,1,.27.27,0,0,1-.33.28c-.59,0-1.18,0-1.77,0-.25,0-.36.07-.35.33,0,.52,0,1,0,1.55,0,.22.07.3.29.3.85,0,1.7,0,2.55,0,.24,0,.31.06.32.29a5.06,5.06,0,0,1,0,.87c0,.24-.13.32-.36.31H59.67c-.25,0-.5,0-.75,0s-.35-.08-.34-.34C58.59,37.07,58.58,35.78,58.58,34.49Z"/><path class="cls-2" d="M39.61,38.82a5,5,0,0,1-1.87-.29c-.37-.12-.39-.16-.3-.55s.14-.51.19-.76.15-.3.4-.2a3.85,3.85,0,0,0,2.2.22,1,1,0,0,0,.87-1.14,1,1,0,0,0-.71-.86c-.45-.2-.92-.37-1.38-.55a2.13,2.13,0,0,1-1.36-2.61,2.09,2.09,0,0,1,1.58-1.75,5.35,5.35,0,0,1,3.26.17.22.22,0,0,1,.16.28,8,8,0,0,1-.2.81c-.09.26-.2.33-.48.22a3.42,3.42,0,0,0-1.9-.19.71.71,0,0,0-.65.61.81.81,0,0,0,.42,1c.53.29,1.11.45,1.65.7a2.17,2.17,0,0,1,1.45,1.62,2.65,2.65,0,0,1-2.29,3.26A5.88,5.88,0,0,1,39.61,38.82Z"/><path class="cls-2" d="M45.58,38.82a4.89,4.89,0,0,1-1.78-.3c-.25-.07-.34-.2-.27-.45s.15-.58.22-.87.16-.27.37-.18a4.3,4.3,0,0,0,1.81.28,2,2,0,0,0,.69-.15.94.94,0,0,0,.61-.83,1,1,0,0,0-.51-1,10.47,10.47,0,0,0-1.51-.63,2.33,2.33,0,0,1,.6-4.51,5.75,5.75,0,0,1,2.76.27.23.23,0,0,1,.19.29,5.67,5.67,0,0,1-.25.92c-.07.18-.18.21-.35.14a3.46,3.46,0,0,0-2-.22.75.75,0,0,0-.69.66.85.85,0,0,0,.43.91,9.85,9.85,0,0,0,1.06.44l1,.43a1.93,1.93,0,0,1,1.12,1.63,2.6,2.6,0,0,1-2.34,3.07A7.83,7.83,0,0,1,45.58,38.82Z"/><path class="cls-2" d="M76.44,38.82A4,4,0,0,1,73.69,38a3.68,3.68,0,0,1-1.24-2.21,5.33,5.33,0,0,1,.39-3.56,3.55,3.55,0,0,1,3.13-2,5.31,5.31,0,0,1,2.13.24c.21.07.28.17.23.39a7.06,7.06,0,0,1-.28.89c-.06.17-.16.2-.32.14a4.06,4.06,0,0,0-1.55-.16A1.91,1.91,0,0,0,74.43,33a4.45,4.45,0,0,0,0,3,1.92,1.92,0,0,0,1.78,1.29,3.76,3.76,0,0,0,1.6-.16.26.26,0,0,1,.37.18,5.33,5.33,0,0,1,.25.89.26.26,0,0,1-.21.35A5.32,5.32,0,0,1,76.44,38.82Z"/><path class="cls-2" d="M89.4,34c.12-.07.14-.19.18-.29q.69-1.57,1.35-3.15a.4.4,0,0,1,.37-.27,5.06,5.06,0,0,1,1.23,0c.26,0,.3.1.19.33-.37.73-.72,1.46-1.07,2.19l-1.32,2.74a1,1,0,0,0-.1.48c0,.79,0,1.58,0,2.36,0,.25-.08.37-.33.38a7.37,7.37,0,0,1-1.15,0c-.21,0-.28-.12-.28-.33,0-.81,0-1.63,0-2.44a1.25,1.25,0,0,0-.12-.54c-.79-1.61-1.56-3.22-2.34-4.83-.14-.28-.14-.28.19-.33a5.8,5.8,0,0,1,1.25,0,.52.52,0,0,1,.46.38c.46,1.06.93,2.12,1.39,3.19C89.34,33.87,89.37,33.91,89.4,34Z"/><path class="cls-2" d="M102.15,35.25V32.19c0-.4,0-.4-.39-.4h-1.38c-.24,0-.35-.09-.36-.32v-.84c0-.26.12-.37.41-.36,1.52,0,3,0,4.57,0,.25,0,.49,0,.73,0a.25.25,0,0,1,.28.25,5.68,5.68,0,0,1,0,1c0,.2-.13.26-.32.26-.49,0-1,0-1.46,0-.26,0-.34.09-.34.34,0,2.05,0,4.1,0,6.15,0,.3-.06.44-.39.47a6.54,6.54,0,0,1-1.17,0c-.21,0-.19-.17-.19-.31Z"/><path class="cls-2" d="M50.27,34.49V30.73c0-.42,0-.42.39-.48a3.76,3.76,0,0,1,1.06,0,.28.28,0,0,1,.29.33c0,.6,0,1.2,0,1.8V36.8c0,.38,0,.38.4.38.72,0,1.44,0,2.16,0,.29,0,.39.1.37.37s0,.57,0,.85-.09.3-.31.3H50.55c-.26,0-.29-.13-.29-.33C50.27,37.07,50.27,35.78,50.27,34.49Z"/><path class="cls-2" d="M108.85,34.52v4c0,.12,0,.2-.15.22a4.43,4.43,0,0,1-1.31,0c-.19,0-.25-.12-.25-.3V30.55c0-.18.06-.26.25-.29a4.92,4.92,0,0,1,1.15,0c.25,0,.31.14.31.36,0,1.31,0,2.61,0,3.91Z"/></g></g></g></svg>