<svg xmlns="http://www.w3.org/2000/svg" viewBox="0 0 21.59 33.69"><defs><style>.cls-1{opacity:0.6;}.cls-2{fill:#fff;}</style></defs><g id="Layer_2" data-name="Layer 2"><g id="レイヤー_1" data-name="レイヤー 1"><g class="cls-1"><g id="Cv2QY7"><path class="cls-2" d="M7.08,13.31a2.6,2.6,0,0,1-.25.33L1.16,19.31c-.22.23-.45.41-.79.27S0,19.16,0,18.84c0-2.49,0-5,0-7.46A2.48,2.48,0,0,1,.75,9.56L9.87.44a1.19,1.19,0,0,1,1.85,0l9.12,9.12a2.42,2.42,0,0,1,.75,1.81v7.5c0,.31-.05.58-.37.71s-.54,0-.76-.24l-5.7-5.7a4.08,4.08,0,0,1-.25-.33l-.12,0V32.23c0,1-.43,1.46-1.45,1.46H8.55A1.22,1.22,0,0,1,7.2,32.34v-19Z"/></g></g></g></g></svg>