<svg xmlns="http://www.w3.org/2000/svg" viewBox="0 0 17.52 15.22"><defs><style>.cls-1{fill:#989898;}</style></defs><g id="Layer_2" data-name="Layer 2"><g id="レイヤー_1" data-name="レイヤー 1"><g id="tkkyY5"><path class="cls-1"
                                                                                                                                                                                                         d="M9.73,6.56l.21-.09c.66.66,1.32,1.34,2,2a1,1,0,0,0,1.44,0,.86.86,0,0,0-.05-1.32C12.06,5.94,10.79,4.72,9.5,3.51A1,1,0,0,0,8,3.55L6,5.42c-.6.57-1.2,1.13-1.78,1.7a.9.9,0,0,0-.09,1.37,1,1,0,0,0,1.48-.07l.55-.52,1.6-1.54c0,1.24,0,2.28,0,3.32,0,1.52,0,3,0,4.56a1,1,0,1,0,1.93,0c0-.21,0-.41,0-.62V6.56ZM8.76,0H1.6A1.4,1.4,0,0,0,0,1.53V2.58C0,3.53.3,4,1,4s1-.42,1-1.42c0-.56.15-.73.76-.73,3.87,0,7.74,0,11.61,0,1.21,0,1.21,0,1.27,1.14a1,1,0,0,0,.92,1,1,1,0,0,0,1-1c0-.45,0-.9,0-1.35C17.51.5,17,0,15.79,0Z"/><path class="cls-1" d="M9.73,6.56v7.06c0,.21,0,.41,0,.62a1,1,0,1,1-1.93,0c0-1.52,0-3,0-4.56,0-1,0-2.08,0-3.32L6.17,7.9l-.55.52a1,1,0,0,1-1.48.07.9.9,0,0,1,.09-1.37C4.81,6.55,5.41,6,6,5.42L8,3.55a1,1,0,0,1,1.53,0c1.29,1.21,2.56,2.43,3.83,3.66a.86.86,0,0,1,.05,1.32,1,1,0,0,1-1.44,0c-.68-.65-1.34-1.33-2-2Z"/><path class="cls-1" d="M8.76,0h7c1.2,0,1.72.5,1.72,1.66,0,.45,0,.9,0,1.35a1,1,0,0,1-1,1,1,1,0,0,1-.92-1c-.06-1.14-.06-1.14-1.27-1.14-3.87,0-7.74,0-11.61,0-.61,0-.78.17-.76.73C2,3.57,1.63,4,1,4S0,3.53,0,2.58v-1A1.4,1.4,0,0,1,1.6,0Z"/></g></g></g></svg>