<svg xmlns="http://www.w3.org/2000/svg" viewBox="0 0 14 15.47"><defs><style>.cls-1{fill:#666;}</style></defs><g id="Layer_2" data-name="Layer 2"><g id="レイヤー_1" data-name="レイヤー 1"><g id="E1pEz5"><path class="cls-1" d="M7.24,15.47a15.15,15.15,0,0,1-5.76-1C.05,13.85-.24,13.24.17,11.74A4.86,4.86,0,0,1,3.84,8.13a.91.91,0,0,1,.6.11,4.88,4.88,0,0,0,5.14,0,.83.83,0,0,1,.53-.12A5,5,0,0,1,14,12.76,1.37,1.37,0,0,1,13.42,14,6.46,6.46,0,0,1,10.86,15a8.72,8.72,0,0,1-1.32.24C8.68,15.36,7.83,15.42,7.24,15.47Z"/><path class="cls-1" d="M10.74,4.07A4.44,4.44,0,0,1,8.83,7.41a3,3,0,0,1-3.55.07A4.26,4.26,0,0,1,4,1.52,3.74,3.74,0,0,1,8.18.19,3.85,3.85,0,0,1,10.74,4.07Z"/></g></g></g></svg>