<svg xmlns="http://www.w3.org/2000/svg" viewBox="0 0 25 25"><defs><style>.cls-1{fill:#333;}.cls-2{fill:#fff;}</style></defs><g id="Layer_2" data-name="Layer 2"><g id="レイヤー_1" data-name="レイヤー 1"><path class="cls-1" d="M0,18.46V6.54A6.56,6.56,0,0,1,6.54,0H18.46A6.56,6.56,0,0,1,25,6.54V18.46A6.56,6.56,0,0,1,18.46,25h-4l-2.1-.51-1.8.51h-4A6.56,6.56,0,0,1,0,18.46Z"/><path class="cls-2" d="M17.37,16.52l.55-3.61H14.45V10.57a1.82,1.82,0,0,1,2-2h1.58V5.54a18.78,18.78,0,0,0-2.8-.25c-2.86,0-4.72,1.73-4.72,4.87v2.75H7.37v3.61h3.18V25h3.9V16.52Z"/></g></g></svg>