<svg xmlns="http://www.w3.org/2000/svg" viewBox="0 0 25 25"><defs><style>.cls-1{fill:#333;}.cls-2{fill:#fff;}</style></defs><g id="Layer_2" data-name="Layer 2"><g id="レイヤー_1" data-name="レイヤー 1"><rect class="cls-1" width="25" height="25" rx="7.65" transform="translate(25 0) rotate(90)"/><path class="cls-2" d="M16.38,7.79a.86.86,0,1,0,.86.86A.86.86,0,0,0,16.38,7.79Z"/><path class="cls-2" d="M12.56,8.89a3.61,3.61,0,1,0,3.61,3.61A3.61,3.61,0,0,0,12.56,8.89Zm0,5.92a2.31,2.31,0,1,1,2.31-2.31A2.32,2.32,0,0,1,12.56,14.81Z"/><path class="cls-2" d="M15.43,19.83H9.57a4.41,4.41,0,0,1-4.4-4.4V9.57a4.41,4.41,0,0,1,4.4-4.4h5.86a4.41,4.41,0,0,1,4.4,4.4v5.86A4.41,4.41,0,0,1,15.43,19.83ZM9.57,6.55a3,3,0,0,0-3,3v5.86a3,3,0,0,0,3,3h5.86a3,3,0,0,0,3-3V9.57a3,3,0,0,0-3-3Z"/></g></g></svg>