<svg xmlns="http://www.w3.org/2000/svg" viewBox="0 0 25 25"><defs><style>.cls-1{fill:#333;}.cls-2{fill:#fff;}</style></defs><g id="Layer_2" data-name="Layer 2"><g id="レイヤー_1" data-name="レイヤー 1"><rect class="cls-1" width="25" height="25" rx="7.65" transform="translate(25 0) rotate(90)"/><path class="cls-2" d="M19.41,8.22A6.18,6.18,0,0,1,18,8.61c.22,0,.54-.44.68-.6a2.62,2.62,0,0,0,.45-.84,0,0,0,0,0,0-.07.08.08,0,0,0-.07,0,6.76,6.76,0,0,1-1.64.62.09.09,0,0,1-.11,0,1.85,1.85,0,0,0-.14-.14,2.73,2.73,0,0,0-.8-.49,2.77,2.77,0,0,0-1.21-.19A2.87,2.87,0,0,0,14,7.2a2.94,2.94,0,0,0-1.49,1.87,3.34,3.34,0,0,0,0,1.18c0,.06,0,.07,0,.06A8.67,8.67,0,0,1,6.85,7.45c-.06-.07-.1-.07-.15,0a2.85,2.85,0,0,0,.48,3.37c.11.1.22.2.35.3a2.87,2.87,0,0,1-1.09-.3c-.06-.05-.1,0-.1.05a1.15,1.15,0,0,0,0,.32,2.86,2.86,0,0,0,1.77,2.3,1.5,1.5,0,0,0,.36.11,3.13,3.13,0,0,1-1.06,0c-.08,0-.11,0-.08.1a3,3,0,0,0,2.23,1.87l.31,0,0,0a3.55,3.55,0,0,1-1.52.81,5.55,5.55,0,0,1-2.32.3c-.13,0-.15,0-.19,0s0,0,0,.08l.48.29a7.35,7.35,0,0,0,1.55.61,8.24,8.24,0,0,0,8-1.87,8.4,8.4,0,0,0,2.21-6.13c0-.09.11-.13.17-.18a5.56,5.56,0,0,0,1.09-1.13.37.37,0,0,0,.07-.22h0S19.46,8.19,19.41,8.22Z"/></g></g></svg>