<svg xmlns="http://www.w3.org/2000/svg" viewBox="0 0 25 25"><defs><style>.cls-1{fill:#333;}.cls-2{fill:#fff;}</style></defs><g id="Layer_2" data-name="Layer 2"><g id="レイヤー_1" data-name="レイヤー 1"><rect class="cls-1" width="25" height="25" rx="7.65" transform="translate(25 0) rotate(90)"/><path class="cls-2" d="M19.19,10.68a3,3,0,0,0-3-3H8.52a3,3,0,0,0-3,3v3.57a3,3,0,0,0,3,3h7.67a3,3,0,0,0,3-3Zm-4.51,2.06-3.44,1.7c-.14.07-.6,0-.6-.18V10.77c0-.16.47-.26.6-.18l3.3,1.79C14.67,12.46,14.82,12.66,14.68,12.74Z"/></g></g></svg>